{"glyphs":{"0":{"ha":532,"x_min":0,"x_max":0,"o":"m 76 51 b 356 138 165 -46 314 33 b 438 393 394 219 416 307 b 507 812 472 531 493 671 b 340 937 528 923 443 1005 b 94 554 304 1107 98 600 b 76 51 60 415 -13 177 z m 142 520 b 254 802 170 617 206 713 b 291 812 266 797 282 798 b 368 889 311 842 336 870 b 442 894 389 902 423 919 b 437 685 471 832 439 751 b 321 196 413 520 380 353 b 91 171 289 67 101 -14 b 142 520 84 288 110 408 z "},"1":{"ha":296,"x_min":0,"x_max":0,"o":"m 113 37 b 288 941 189 335 248 636 b 241 960 291 964 255 977 b 95 792 192 904 144 848 b 134 752 70 766 109 727 b 220 852 163 786 192 819 b 59 52 181 583 127 316 b 113 37 50 18 104 3 z "},"2":{"ha":621,"x_min":0,"x_max":0,"o":"m 542 942 b 174 787 405 1066 232 921 b 222 759 157 755 205 727 b 400 931 261 833 312 913 b 524 810 471 949 552 885 b -14 75 381 544 181 307 b 13 29 -32 54 -14 23 b 487 29 169 64 332 64 b 502 82 522 21 537 74 b 79 97 363 114 219 119 b 513 676 235 281 380 475 b 542 942 570 751 625 865 z "},"3":{"ha":597,"x_min":0,"x_max":0,"o":"m 521 365 b 335 568 567 494 461 589 b 538 900 436 645 552 763 b 371 974 524 975 435 995 b 177 809 322 967 138 869 b 216 809 186 799 207 797 b 433 745 323 953 601 996 b 151 541 368 646 265 572 b 158 486 120 532 127 487 b 460 479 257 479 377 561 b 368 220 511 390 425 285 b 4 50 274 119 142 55 b 4 -6 -32 48 -32 -7 b 521 365 227 3 447 151 z "},"4":{"ha":586,"x_min":0,"x_max":0,"o":"m 516 504 b 516 560 552 505 552 561 b 449 558 494 559 471 559 b 561 940 485 686 522 814 b 508 955 572 974 519 989 b 391 556 466 823 429 690 b 113 549 298 554 206 551 b 416 944 209 684 310 816 b 416 983 425 955 427 971 b 34 534 372 1043 81 586 b 58 492 22 516 38 492 b 376 501 164 495 270 498 b 238 28 331 343 287 184 b 291 13 227 -6 280 -21 b 433 502 342 175 388 339 b 516 504 461 503 489 504 z "},"5":{"ha":583,"x_min":0,"x_max":0,"o":"m 570 907 b 570 963 606 909 606 964 b 181 970 440 959 310 961 b 194 914 135 964 151 906 b 67 454 152 760 109 607 b 118 432 59 424 104 403 b 283 516 147 493 223 506 b 342 235 487 567 406 330 b 198 84 305 176 255 124 b -21 -2 133 39 58 9 b -40 -36 -36 -4 -44 -23 b -6 -56 -36 -52 -21 -58 b 387 202 154 -33 299 67 b 147 535 548 462 474 671 b 251 910 182 660 216 785 b 570 907 357 905 464 904 z "},"6":{"ha":657,"x_min":0,"x_max":0,"o":"m 134 47 b 172 439 422 -219 828 735 b 671 936 253 668 434 866 b 656 990 705 947 690 1000 b 100 399 382 908 178 669 b 29 346 75 383 51 365 b 80 316 0 307 54 281 b 134 47 61 224 62 117 z m 254 413 b 255 53 649 564 419 75 b 148 363 102 59 112 256 b 254 413 181 383 217 400 z "},"7":{"ha":444,"x_min":0,"x_max":0,"o":"m 43 6 b 77 26 58 2 72 12 b 474 914 184 332 317 630 b 450 956 484 933 471 955 b 124 961 341 958 233 959 b 124 906 89 962 89 907 b 404 901 218 904 311 903 b 23 40 254 625 127 337 b 43 6 18 26 29 10 z "},"8":{"ha":629,"x_min":0,"x_max":0,"o":"m 527 700 b 231 834 816 1011 376 1088 b 230 460 177 720 178 575 b 166 350 211 431 141 388 b 21 174 115 294 61 239 b 185 -19 -50 46 66 -27 b 480 83 288 -20 413 -3 b 470 219 511 125 505 182 b 297 452 413 296 347 369 b 527 700 375 533 456 612 z m 255 555 b 269 787 246 631 242 713 b 563 907 311 890 462 974 b 271 504 595 803 343 588 b 255 555 264 521 259 538 z m 391 231 b 343 58 478 139 453 99 b 61 75 274 35 109 13 b 272 387 21 156 226 317 b 391 231 309 333 353 282 z "},"9":{"ha":639,"x_min":0,"x_max":0,"o":"m 573 682 b 561 672 570 679 565 676 b 299 960 613 842 493 1075 b 469 550 26 741 35 345 b 10 65 389 339 234 132 b 25 12 -24 55 -9 2 b 542 590 286 91 463 338 b 613 643 567 606 590 624 b 573 682 638 668 599 707 z m 387 575 b 386 935 -7 425 222 913 b 494 625 540 929 529 732 b 387 575 460 605 424 588 z "},"\u0000":{"ha":0,"x_min":0,"x_max":0,"o":""},"\n":{"ha":0,"x_min":0,"x_max":0,"o":""},"\r":{"ha":0,"x_min":0,"x_max":0,"o":""}," ":{"ha":368,"x_min":0,"x_max":0,"o":""},"!":{"ha":226,"x_min":0,"x_max":0,"o":"m 168 916 b 39 222 128 684 81 453 b 78 219 35 195 74 197 b 218 912 123 450 176 680 b 168 916 223 946 173 944 z m 37 38 b 22 -14 6 42 -16 -9 b 37 38 53 -18 76 33 z "},"\"":{"ha":254,"x_min":0,"x_max":0,"o":"m 139 933 b 128 879 107 932 87 881 b 113 828 128 861 97 843 b 139 933 153 812 203 940 z m 221 933 b 210 879 189 932 168 881 b 194 828 210 861 179 843 b 221 933 234 812 284 940 z "},"#":{"ha":590,"x_min":0,"x_max":0,"o":"m 518 423 b 412 423 483 426 447 424 b 431 520 418 456 425 488 b 513 523 459 520 486 520 b 518 556 531 524 541 554 b 439 557 492 559 465 558 b 508 910 463 675 488 792 b 458 914 514 944 463 942 b 393 556 438 794 415 675 b 206 551 330 555 268 553 b 277 912 230 671 256 791 b 227 916 282 946 232 944 b 159 549 206 793 183 671 b 75 546 131 548 103 548 b 70 512 58 545 48 512 b 152 513 98 512 125 512 b 134 415 146 480 140 448 b 75 413 114 415 95 414 b 70 379 58 411 48 379 b 127 380 89 379 108 379 b 59 16 104 259 80 138 b 97 14 54 -10 93 -9 b 171 380 121 136 146 258 b 360 385 234 381 297 384 b 290 14 336 262 312 138 b 329 12 285 -12 324 -10 b 404 386 353 137 379 262 b 513 390 440 387 477 387 b 518 423 531 391 541 421 z m 367 422 b 323 421 352 422 337 422 b 178 417 275 420 226 418 b 198 514 185 449 192 482 b 386 519 261 515 323 517 b 367 422 379 487 373 455 z "},"$":{"ha":629,"x_min":0,"x_max":0,"o":"m 451 685 b 412 612 439 663 390 639 b 601 828 451 586 582 792 b 398 914 698 1013 501 991 b 416 1010 404 946 410 978 b 366 1013 421 1043 371 1041 b 341 876 358 967 350 922 b 260 447 183 763 -164 434 b 183 45 234 313 209 179 b 83 49 152 36 111 25 b 39 66 72 68 60 80 b 29 33 27 58 23 45 b 174 -4 56 -20 125 -18 b 158 -89 169 -32 163 -61 b 197 -91 154 -115 193 -114 b 217 10 204 -58 210 -24 b 518 430 373 81 554 241 b 426 488 509 472 463 483 b 315 496 389 493 352 495 b 386 849 338 614 362 731 b 576 888 416 874 583 978 b 451 685 558 810 500 746 z m 472 341 b 227 63 445 215 337 120 b 304 446 253 191 279 318 b 472 341 393 437 497 472 z m 270 497 b 253 498 264 497 258 498 b 329 806 -56 484 234 725 b 270 497 309 703 289 600 z "},"%":{"ha":650,"x_min":0,"x_max":0,"o":"m 202 531 b 374 809 327 547 393 695 b 324 952 368 859 353 911 b 284 930 311 971 279 950 b 289 911 285 923 287 917 b 122 819 231 943 151 867 b 202 531 52 723 42 526 z m 151 784 b 289 911 205 903 294 862 b 151 784 438 524 9 466 z m 469 387 b 474 369 471 381 472 375 b 259 94 352 409 241 201 b 510 409 340 -175 698 112 b 469 387 496 429 464 407 z m 503 176 b 310 96 497 75 366 -39 b 455 340 292 191 352 323 b 474 368 468 341 477 358 b 503 176 493 307 515 242 z m 526 923 b 88 16 384 619 232 319 b 123 4 76 -9 112 -17 b 498 757 246 255 373 505 b 570 907 522 807 547 857 b 526 923 585 939 539 950 z "},"&":{"ha":585,"x_min":0,"x_max":0,"o":"m 457 75 b 498 169 472 96 529 146 b 439 135 472 181 456 149 b 294 586 391 285 341 435 b 465 828 348 667 444 729 b 223 872 469 959 281 968 b 245 586 161 783 223 677 b 27 242 165 477 74 370 b 408 31 -48 -3 235 -95 b 423 -20 413 14 418 -3 b 479 4 433 -53 489 -27 b 457 75 472 27 465 51 z m 409 784 b 281 630 372 728 321 683 b 259 699 273 653 266 676 b 409 784 151 940 485 954 z m 361 67 b 105 63 294 -1 175 -1 b 259 541 -33 214 175 413 b 390 89 302 391 344 239 b 361 67 381 81 371 74 z "},"'":{"ha":189,"x_min":0,"x_max":0,"o":"m 148 933 b 137 879 116 932 95 881 b 121 828 137 861 106 843 b 148 933 161 812 211 940 z "},"(":{"ha":518,"x_min":0,"x_max":0,"o":"m 423 1042 b 68 182 126 879 3 504 b 204 -88 77 135 140 -121 b 192 -2 242 -67 204 -28 b 259 851 50 264 79 609 b 438 1011 307 916 368 971 b 423 1042 458 1023 445 1054 z "},")":{"ha":519,"x_min":0,"x_max":0,"o":"m 411 915 b 347 1042 393 958 377 1005 b 297 1015 330 1064 289 1040 b 325 961 305 996 316 979 b 258 108 468 695 438 349 b 79 -53 210 43 149 -12 b 94 -84 60 -64 72 -95 b 411 915 436 106 543 563 z "},"*":{"ha":356,"x_min":0,"x_max":0,"o":"m 326 802 b 237 797 296 801 267 798 b 239 875 237 823 238 849 b 224 940 238 895 256 941 b 204 919 213 938 206 929 b 174 798 198 877 189 837 b 108 801 152 799 130 800 b 98 764 87 802 72 770 b 157 756 117 760 137 758 b 74 620 134 708 105 663 b 113 600 58 594 98 578 b 208 720 145 640 176 680 b 276 586 239 680 249 628 b 244 752 368 569 268 725 b 344 780 276 756 332 740 b 326 802 345 791 338 802 z "},"+":{"ha":419,"x_min":0,"x_max":0,"o":"m 369 483 b 229 480 322 482 276 481 b 249 619 236 526 243 573 b 213 617 251 640 216 634 b 189 479 204 571 196 525 b 48 473 142 477 95 476 b 43 439 31 471 21 439 b 183 441 90 439 137 440 b 162 306 176 396 169 351 b 200 303 157 279 197 281 b 223 442 208 349 216 396 b 383 463 256 450 374 431 b 369 483 385 472 379 483 z "},",":{"ha":128,"x_min":0,"x_max":0,"o":"m 6 40 b -5 -14 -26 39 -47 -12 b -21 -66 -5 -32 -36 -49 b 6 40 19 -81 69 46 z "},"-":{"ha":438,"x_min":0,"x_max":0,"o":"m 353 483 b 33 473 247 480 139 480 b 28 439 15 471 6 439 b 367 463 76 445 365 428 b 353 483 370 472 364 483 z "},".":{"ha":115,"x_min":0,"x_max":0,"o":"m 7 38 b -8 -14 -24 42 -47 -9 b 7 38 22 -18 45 33 z "},"/":{"ha":422,"x_min":0,"x_max":0,"o":"m 404 923 b -34 16 262 619 110 319 b 1 4 -46 -9 -10 -17 b 376 757 124 255 251 505 b 448 907 401 807 425 857 b 404 923 463 939 417 950 z "},":":{"ha":178,"x_min":0,"x_max":0,"o":"m 48 38 b 33 -14 17 42 -5 -9 b 48 38 64 -18 87 33 z m 71 395 b 56 342 40 399 17 347 b 71 395 87 338 109 390 z "},";":{"ha":186,"x_min":0,"x_max":0,"o":"m 70 395 b 54 342 39 399 16 347 b 70 395 85 338 108 390 z m 46 40 b 35 -14 14 39 -7 -12 b 20 -66 35 -32 4 -50 b 46 40 59 -81 110 46 z "},"<":{"ha":589,"x_min":0,"x_max":0,"o":"m 518 549 b 59 459 364 525 212 490 b 43 402 33 456 12 414 b 478 284 188 362 333 324 b 507 336 507 272 543 321 b 180 428 398 367 289 398 b 523 513 294 456 410 480 b 518 549 544 519 543 552 z "},"=":{"ha":442,"x_min":0,"x_max":0,"o":"m 393 553 b 72 543 286 551 179 550 b 67 510 55 542 45 510 b 382 517 172 509 277 515 b 393 553 404 514 420 550 z m 366 396 b 45 385 259 393 152 392 b 40 352 28 384 18 352 b 355 359 145 351 250 357 b 366 396 377 356 393 392 z "},">":{"ha":589,"x_min":0,"x_max":0,"o":"m 528 435 b 94 553 384 475 238 514 b 53 536 78 557 61 550 b 64 501 46 524 48 505 b 391 409 173 470 282 439 b 49 324 277 381 161 357 b 53 288 28 318 29 285 b 283 331 130 299 207 316 b 512 378 359 346 436 362 b 528 435 539 381 559 423 z "},"?":{"ha":471,"x_min":0,"x_max":0,"o":"m 144 38 b 129 -14 113 42 91 -9 b 144 38 160 -18 182 33 z m 88 777 b 138 633 81 726 99 668 b 170 661 152 620 182 645 b 388 814 35 828 284 1003 b 188 447 443 664 290 534 b 113 207 123 385 112 293 b 173 217 113 168 173 184 b 238 419 176 288 179 371 b 88 777 765 840 176 1144 z "},"@":{"ha":814,"x_min":0,"x_max":0,"o":"m 756 862 b 328 788 643 1028 437 885 b 99 64 146 633 -92 286 b 399 105 188 -24 322 26 b 457 198 415 127 485 169 b 422 191 447 206 430 201 b 90 172 332 73 162 -12 b 417 810 30 423 228 667 b 683 874 487 863 598 938 b 497 316 864 707 640 431 b 574 586 508 408 543 498 b 574 648 577 605 606 641 b 548 630 562 649 552 640 b 284 308 499 513 405 356 b 216 362 247 302 221 327 b 364 603 214 460 291 547 b 562 676 422 645 490 671 b 567 708 579 677 588 709 b 174 361 383 699 188 551 b 353 302 177 261 288 245 b 482 435 402 340 445 386 b 766 603 359 38 730 481 b 756 862 801 684 805 786 z "},"A":{"ha":542,"x_min":0,"x_max":0,"o":"m 495 474 b 506 514 519 471 536 511 b 420 512 477 513 449 512 b 436 953 419 658 416 807 b 387 963 441 986 402 984 b 331 872 368 933 349 903 b 141 502 263 751 198 628 b 67 499 116 501 92 500 b 62 464 49 498 39 464 b 124 465 83 464 103 465 b -2 17 113 441 -133 -111 b 182 466 56 168 114 319 b 369 470 245 467 307 469 b 384 -26 372 305 380 140 b 436 -17 385 -59 437 -45 b 420 472 432 146 423 309 b 495 474 445 472 470 473 z m 201 505 b 377 844 255 620 314 733 b 369 510 368 733 367 621 b 201 505 313 508 257 507 z "},"À":{"ha":542,"x_min":0,"x_max":0,"o":"m 495 474 b 506 514 519 471 536 511 b 420 512 477 513 449 512 b 436 953 419 658 416 807 b 387 963 441 986 402 984 b 331 872 368 933 349 903 b 141 502 263 751 198 628 b 67 499 116 501 92 500 b 62 464 49 498 39 464 b 124 465 83 464 103 465 b -2 17 113 441 -133 -111 b 182 466 56 168 114 319 b 369 470 245 467 307 469 b 384 -26 372 305 380 140 b 436 -17 385 -59 437 -45 b 420 472 432 146 423 309 b 495 474 445 472 470 473 z m 201 505 b 377 844 255 620 314 733 b 369 510 368 733 367 621 b 201 505 313 508 257 507 z "},"Á":{"ha":542,"x_min":0,"x_max":0,"o":"m 495 474 b 506 514 519 471 536 511 b 420 512 477 513 449 512 b 436 953 419 658 416 807 b 387 963 441 986 402 984 b 331 872 368 933 349 903 b 141 502 263 751 198 628 b 67 499 116 501 92 500 b 62 464 49 498 39 464 b 124 465 83 464 103 465 b -2 17 113 441 -133 -111 b 182 466 56 168 114 319 b 369 470 245 467 307 469 b 384 -26 372 305 380 140 b 436 -17 385 -59 437 -45 b 420 472 432 146 423 309 b 495 474 445 472 470 473 z m 201 505 b 377 844 255 620 314 733 b 369 510 368 733 367 621 b 201 505 313 508 257 507 z "},"Â":{"ha":542,"x_min":0,"x_max":0,"o":"m 495 474 b 506 514 519 471 536 511 b 420 512 477 513 449 512 b 436 953 419 658 416 807 b 387 963 441 986 402 984 b 331 872 368 933 349 903 b 141 502 263 751 198 628 b 67 499 116 501 92 500 b 62 464 49 498 39 464 b 124 465 83 464 103 465 b -2 17 113 441 -133 -111 b 182 466 56 168 114 319 b 369 470 245 467 307 469 b 384 -26 372 305 380 140 b 436 -17 385 -59 437 -45 b 420 472 432 146 423 309 b 495 474 445 472 470 473 z m 201 505 b 377 844 255 620 314 733 b 369 510 368 733 367 621 b 201 505 313 508 257 507 z "},"Ã":{"ha":542,"x_min":0,"x_max":0,"o":"m 495 474 b 506 514 519 471 536 511 b 420 512 477 513 449 512 b 436 953 419 658 416 807 b 387 963 441 986 402 984 b 331 872 368 933 349 903 b 141 502 263 751 198 628 b 67 499 116 501 92 500 b 62 464 49 498 39 464 b 124 465 83 464 103 465 b -2 17 113 441 -133 -111 b 182 466 56 168 114 319 b 369 470 245 467 307 469 b 384 -26 372 305 380 140 b 436 -17 385 -59 437 -45 b 420 472 432 146 423 309 b 495 474 445 472 470 473 z m 201 505 b 377 844 255 620 314 733 b 369 510 368 733 367 621 b 201 505 313 508 257 507 z "},"Ä":{"ha":542,"x_min":0,"x_max":0,"o":"m 495 474 b 506 514 519 471 536 511 b 420 512 477 513 449 512 b 436 953 419 658 416 807 b 387 963 441 986 402 984 b 331 872 368 933 349 903 b 141 502 263 751 198 628 b 67 499 116 501 92 500 b 62 464 49 498 39 464 b 124 465 83 464 103 465 b -2 17 113 441 -133 -111 b 182 466 56 168 114 319 b 369 470 245 467 307 469 b 384 -26 372 305 380 140 b 436 -17 385 -59 437 -45 b 420 472 432 146 423 309 b 495 474 445 472 470 473 z m 201 505 b 377 844 255 620 314 733 b 369 510 368 733 367 621 b 201 505 313 508 257 507 z "},"Å":{"ha":542,"x_min":0,"x_max":0,"o":"m 495 474 b 506 514 519 471 536 511 b 420 512 477 513 449 512 b 436 953 419 658 416 807 b 387 963 441 986 402 984 b 331 872 368 933 349 903 b 141 502 263 751 198 628 b 67 499 116 501 92 500 b 62 464 49 498 39 464 b 124 465 83 464 103 465 b -2 17 113 441 -133 -111 b 182 466 56 168 114 319 b 369 470 245 467 307 469 b 384 -26 372 305 380 140 b 436 -17 385 -59 437 -45 b 420 472 432 146 423 309 b 495 474 445 472 470 473 z m 201 505 b 377 844 255 620 314 733 b 369 510 368 733 367 621 b 201 505 313 508 257 507 z "},"B":{"ha":622,"x_min":0,"x_max":0,"o":"m 592 439 b 340 589 616 601 460 613 b 591 843 438 653 554 726 b 361 982 616 974 455 989 b 63 717 208 985 80 869 b 100 715 59 693 95 694 b 236 917 116 797 156 882 b 82 150 182 662 124 406 b 82 150 82 150 82 150 b 123 156 87 132 119 136 b 274 931 173 389 233 678 b 484 754 410 965 661 932 b 220 563 409 673 316 615 b 231 526 195 552 201 516 b 470 551 308 549 390 559 b 414 267 622 506 498 322 b 80 84 314 188 197 134 b -19 45 48 69 14 57 b -8 7 -45 35 -37 -3 b 592 439 206 76 534 196 z "},"C":{"ha":599,"x_min":0,"x_max":0,"o":"m -2 135 b 356 89 24 -43 253 11 b 541 306 389 109 579 272 b 505 299 531 313 513 309 b 384 166 470 251 429 206 b 218 71 336 124 280 86 b 206 676 -122 -19 117 549 b 499 956 279 778 380 911 b 547 795 603 969 573 854 b 425 569 518 714 477 638 b 451 550 410 549 437 532 b 577 980 510 631 687 903 b 374 920 505 1025 427 966 b -2 135 150 729 -13 435 z "},"Ç":{"ha":599,"x_min":0,"x_max":0,"o":"m -2 135 b 356 89 24 -43 253 11 b 541 306 389 109 579 272 b 505 299 531 313 513 309 b 384 166 470 251 429 206 b 218 71 336 124 280 86 b 206 676 -122 -19 117 549 b 499 956 279 778 380 911 b 547 795 603 969 573 854 b 425 569 518 714 477 638 b 451 550 410 549 437 532 b 577 980 510 631 687 903 b 374 920 505 1025 427 966 b -2 135 150 729 -13 435 z "},"D":{"ha":651,"x_min":0,"x_max":0,"o":"m 87 150 b 87 150 87 150 87 150 b 127 153 91 133 120 136 b 144 230 134 178 138 205 b 271 877 188 443 233 672 b 274 901 272 885 274 893 b 619 809 386 973 573 945 b 521 497 641 698 573 591 b -38 32 394 284 188 129 b -53 9 -47 28 -55 20 b 141 78 -41 -37 112 65 b 664 813 376 212 680 527 b 122 776 590 1069 196 1001 b 160 773 116 749 155 752 b 230 869 176 811 200 843 b 87 150 181 630 125 390 z "},"E":{"ha":631,"x_min":0,"x_max":0,"o":"m 200 464 b 267 454 222 456 245 453 b 161 -13 106 371 -283 -140 b 565 203 311 27 447 104 b 573 239 576 211 585 227 b 534 234 562 251 544 244 b 327 94 474 177 401 131 b 164 322 -50 -84 -100 23 b 380 479 227 386 300 440 b 370 515 404 491 399 524 b 170 583 301 486 168 479 b 297 792 185 663 245 731 b 478 650 546 1035 713 962 b 485 627 473 642 475 631 b 573 733 516 619 551 710 b 520 975 639 815 681 990 b 200 464 370 960 -43 575 z "},"È":{"ha":631,"x_min":0,"x_max":0,"o":"m 200 464 b 267 454 222 456 245 453 b 161 -13 106 371 -283 -140 b 565 203 311 27 447 104 b 573 239 576 211 585 227 b 534 234 562 251 544 244 b 327 94 474 177 401 131 b 164 322 -50 -84 -100 23 b 380 479 227 386 300 440 b 370 515 404 491 399 524 b 170 583 301 486 168 479 b 297 792 185 663 245 731 b 478 650 546 1035 713 962 b 485 627 473 642 475 631 b 573 733 516 619 551 710 b 520 975 639 815 681 990 b 200 464 370 960 -43 575 z "},"É":{"ha":631,"x_min":0,"x_max":0,"o":"m 200 464 b 267 454 222 456 245 453 b 161 -13 106 371 -283 -140 b 565 203 311 27 447 104 b 573 239 576 211 585 227 b 534 234 562 251 544 244 b 327 94 474 177 401 131 b 164 322 -50 -84 -100 23 b 380 479 227 386 300 440 b 370 515 404 491 399 524 b 170 583 301 486 168 479 b 297 792 185 663 245 731 b 478 650 546 1035 713 962 b 485 627 473 642 475 631 b 573 733 516 619 551 710 b 520 975 639 815 681 990 b 200 464 370 960 -43 575 z "},"Ê":{"ha":631,"x_min":0,"x_max":0,"o":"m 200 464 b 267 454 222 456 245 453 b 161 -13 106 371 -283 -140 b 565 203 311 27 447 104 b 573 239 576 211 585 227 b 534 234 562 251 544 244 b 327 94 474 177 401 131 b 164 322 -50 -84 -100 23 b 380 479 227 386 300 440 b 370 515 404 491 399 524 b 170 583 301 486 168 479 b 297 792 185 663 245 731 b 478 650 546 1035 713 962 b 485 627 473 642 475 631 b 573 733 516 619 551 710 b 520 975 639 815 681 990 b 200 464 370 960 -43 575 z "},"Ë":{"ha":631,"x_min":0,"x_max":0,"o":"m 200 464 b 267 454 222 456 245 453 b 161 -13 106 371 -283 -140 b 565 203 311 27 447 104 b 573 239 576 211 585 227 b 534 234 562 251 544 244 b 327 94 474 177 401 131 b 164 322 -50 -84 -100 23 b 380 479 227 386 300 440 b 370 515 404 491 399 524 b 170 583 301 486 168 479 b 297 792 185 663 245 731 b 478 650 546 1035 713 962 b 485 627 473 642 475 631 b 573 733 516 619 551 710 b 520 975 639 815 681 990 b 200 464 370 960 -43 575 z "},"F":{"ha":615,"x_min":0,"x_max":0,"o":"m 150 906 b 224 907 174 906 199 907 b 140 504 195 773 168 638 b 31 499 104 502 67 501 b 25 464 12 498 3 464 b 132 465 61 464 97 465 b 61 108 108 346 84 227 b 37 -26 54 63 41 19 b 78 -22 38 -47 74 -44 b 78 -24 78 -23 78 -23 b 178 466 115 139 145 303 b 485 492 225 475 484 455 b 470 514 488 502 481 515 b 186 505 375 511 280 509 b 263 908 212 640 239 774 b 661 928 396 912 529 917 b 662 970 688 930 693 973 b 204 943 510 953 356 949 b 136 925 182 939 147 951 b 150 906 134 916 140 906 z "},"G":{"ha":586,"x_min":0,"x_max":0,"o":"m 31 370 b 27 48 9 268 -43 141 b 314 87 107 -36 241 20 b 519 472 421 188 489 329 b 571 500 538 477 569 475 b 551 516 571 511 561 518 b 272 472 459 496 366 482 b 175 464 240 469 207 468 b 170 430 158 462 147 430 b 476 464 272 430 375 447 b 197 59 432 307 356 126 b 43 111 141 35 63 45 b 127 519 14 243 82 396 b 378 884 189 652 263 789 b 531 884 415 917 530 970 b 481 758 522 840 500 799 b 413 641 461 717 438 678 b 443 630 401 619 434 612 b 441 959 505 719 687 1016 b 31 370 228 870 98 578 z "},"H":{"ha":574,"x_min":0,"x_max":0,"o":"m -6 39 b -6 39 -6 39 -6 39 b 50 42 -5 5 44 15 b 67 133 59 72 60 103 b 131 469 87 245 110 357 b 410 469 224 470 317 469 b 345 37 386 325 364 181 b 399 46 347 3 399 17 b 456 469 416 188 435 328 b 554 486 487 474 538 453 b 462 507 560 524 485 501 b 539 936 483 651 511 793 b 523 950 541 945 530 951 b 478 838 485 941 490 869 b 416 507 454 728 434 617 b 138 507 323 507 231 506 b 204 862 161 625 184 743 b 218 963 209 895 216 929 b 180 961 219 986 184 978 b 90 507 148 810 124 657 b 57 505 79 506 68 506 b 52 470 39 503 29 473 b 81 469 61 469 71 469 b -6 39 51 326 19 183 z "},"I":{"ha":199,"x_min":0,"x_max":0,"o":"m 9 141 b -9 38 4 107 -8 72 b 47 41 -8 4 42 14 b 173 752 87 278 132 515 b 201 951 182 818 196 884 b 163 949 202 974 167 966 b 9 141 115 679 61 410 z "},"Ì":{"ha":199,"x_min":0,"x_max":0,"o":"m 9 141 b -9 38 4 107 -8 72 b 47 41 -8 4 42 14 b 173 752 87 278 132 515 b 201 951 182 818 196 884 b 163 949 202 974 167 966 b 9 141 115 679 61 410 z "},"Í":{"ha":199,"x_min":0,"x_max":0,"o":"m 9 141 b -9 38 4 107 -8 72 b 47 41 -8 4 42 14 b 173 752 87 278 132 515 b 201 951 182 818 196 884 b 163 949 202 974 167 966 b 9 141 115 679 61 410 z "},"Î":{"ha":199,"x_min":0,"x_max":0,"o":"m 9 141 b -9 38 4 107 -8 72 b 47 41 -8 4 42 14 b 173 752 87 278 132 515 b 201 951 182 818 196 884 b 163 949 202 974 167 966 b 9 141 115 679 61 410 z "},"Ï":{"ha":199,"x_min":0,"x_max":0,"o":"m 9 141 b -9 38 4 107 -8 72 b 47 41 -8 4 42 14 b 173 752 87 278 132 515 b 201 951 182 818 196 884 b 163 949 202 974 167 966 b 9 141 115 679 61 410 z "},"J":{"ha":542,"x_min":0,"x_max":0,"o":"m 361 450 b 348 397 357 432 352 414 b 389 375 -469 -21 202 -283 b 517 435 431 396 474 416 b 507 468 539 445 533 478 b 401 422 472 453 436 438 b 475 894 435 578 472 735 b 130 686 462 1230 183 780 b 165 674 117 661 155 652 b 403 972 235 777 295 904 b 404 973 406 973 410 973 b 407 973 405 973 406 973 b 408 973 403 974 412 972 b 420 960 414 971 417 965 b 361 450 452 807 393 615 z m 285 227 b 333 346 81 -144 -268 21 b 285 227 321 305 305 265 z "},"K":{"ha":507,"x_min":0,"x_max":0,"o":"m 75 455 b -16 40 44 317 10 179 b -15 40 -16 40 -16 40 b 5 18 -15 29 -8 19 b 59 136 60 22 45 98 b 127 463 80 245 104 354 b 341 112 199 346 267 228 b 445 35 362 87 415 -40 b 391 126 439 70 407 96 b 149 511 307 252 231 383 b 430 818 246 610 338 714 b 546 954 467 865 516 904 b 518 975 555 974 534 986 b 149 565 389 845 277 696 b 212 884 171 671 193 778 b 229 991 219 920 226 955 b 191 989 230 1014 195 1005 b 113 618 162 866 143 741 b 71 482 98 574 101 519 b 75 455 64 474 63 459 z "},"L":{"ha":539,"x_min":0,"x_max":0,"o":"m -28 2 b 18 -1 -35 -29 11 -26 b 216 7 44 64 163 5 b 493 17 258 7 487 -23 b 478 38 496 27 490 38 b 196 52 384 38 289 38 b 36 65 143 59 88 81 b 235 956 113 360 162 661 b 197 959 240 982 203 979 b -28 2 109 643 65 317 z "},"M":{"ha":729,"x_min":0,"x_max":0,"o":"m 28 8 b 181 794 66 272 106 537 b 238 78 177 554 224 316 b 268 19 239 56 245 28 b 366 144 336 4 342 101 b 639 807 455 366 551 585 b 597 239 634 616 611 428 b 584 31 592 169 587 100 b 625 38 583 5 624 16 b 637 898 611 95 740 1045 b 289 68 517 623 405 345 b 228 944 263 358 209 651 b 191 947 234 970 196 968 b 1 84 89 670 44 375 b -8 6 -2 58 -6 32 b 28 8 -9 -15 25 -9 z "},"N":{"ha":596,"x_min":0,"x_max":0,"o":"m -1 85 b -4 33 -5 68 -5 51 b 33 35 -5 11 29 18 b 49 124 42 64 45 94 b 180 787 81 347 123 569 b 422 100 181 688 214 -251 b 533 482 480 220 506 352 b 599 944 563 635 586 789 b 552 936 597 974 552 961 b 349 64 515 663 494 299 b 348 64 349 64 349 64 b 216 929 226 173 227 749 b 182 932 217 948 191 946 b 131 754 161 874 147 813 b -1 85 75 534 33 310 z "},"Ñ":{"ha":596,"x_min":0,"x_max":0,"o":"m -1 85 b -4 33 -5 68 -5 51 b 33 35 -5 11 29 18 b 49 124 42 64 45 94 b 180 787 81 347 123 569 b 422 100 181 688 214 -251 b 533 482 480 220 506 352 b 599 944 563 635 586 789 b 552 936 597 974 552 961 b 349 64 515 663 494 299 b 348 64 349 64 349 64 b 216 929 226 173 227 749 b 182 932 217 948 191 946 b 131 754 161 874 147 813 b -1 85 75 534 33 310 z "},"O":{"ha":622,"x_min":0,"x_max":0,"o":"m 27 160 b 418 88 69 -29 302 -43 b 562 915 574 261 637 697 b 89 603 434 1106 134 730 b 27 160 28 467 -9 309 z m 63 362 b 306 842 87 542 170 719 b 343 836 307 823 334 824 b 417 915 364 864 387 897 b 511 385 622 1016 536 478 b 416 148 491 304 465 217 b 131 77 357 58 223 2 b 63 362 53 147 53 265 z "},"Ò":{"ha":622,"x_min":0,"x_max":0,"o":"m 27 160 b 418 88 69 -29 302 -43 b 562 915 574 261 637 697 b 89 603 434 1106 134 730 b 27 160 28 467 -9 309 z m 63 362 b 306 842 87 542 170 719 b 343 836 307 823 334 824 b 417 915 364 864 387 897 b 511 385 622 1016 536 478 b 416 148 491 304 465 217 b 131 77 357 58 223 2 b 63 362 53 147 53 265 z "},"Ó":{"ha":622,"x_min":0,"x_max":0,"o":"m 27 160 b 418 88 69 -29 302 -43 b 562 915 574 261 637 697 b 89 603 434 1106 134 730 b 27 160 28 467 -9 309 z m 63 362 b 306 842 87 542 170 719 b 343 836 307 823 334 824 b 417 915 364 864 387 897 b 511 385 622 1016 536 478 b 416 148 491 304 465 217 b 131 77 357 58 223 2 b 63 362 53 147 53 265 z "},"Ô":{"ha":622,"x_min":0,"x_max":0,"o":"m 27 160 b 418 88 69 -29 302 -43 b 562 915 574 261 637 697 b 89 603 434 1106 134 730 b 27 160 28 467 -9 309 z m 63 362 b 306 842 87 542 170 719 b 343 836 307 823 334 824 b 417 915 364 864 387 897 b 511 385 622 1016 536 478 b 416 148 491 304 465 217 b 131 77 357 58 223 2 b 63 362 53 147 53 265 z "},"Õ":{"ha":622,"x_min":0,"x_max":0,"o":"m 27 160 b 418 88 69 -29 302 -43 b 562 915 574 261 637 697 b 89 603 434 1106 134 730 b 27 160 28 467 -9 309 z m 63 362 b 306 842 87 542 170 719 b 343 836 307 823 334 824 b 417 915 364 864 387 897 b 511 385 622 1016 536 478 b 416 148 491 304 465 217 b 131 77 357 58 223 2 b 63 362 53 147 53 265 z "},"Ö":{"ha":622,"x_min":0,"x_max":0,"o":"m 27 160 b 418 88 69 -29 302 -43 b 562 915 574 261 637 697 b 89 603 434 1106 134 730 b 27 160 28 467 -9 309 z m 63 362 b 306 842 87 542 170 719 b 343 836 307 823 334 824 b 417 915 364 864 387 897 b 511 385 622 1016 536 478 b 416 148 491 304 465 217 b 131 77 357 58 223 2 b 63 362 53 147 53 265 z "},"Ø":{"ha":622,"x_min":0,"x_max":0,"o":"m 27 160 b 418 88 69 -29 302 -43 b 562 915 574 261 637 697 b 89 603 434 1106 134 730 b 27 160 28 467 -9 309 z m 63 362 b 306 842 87 542 170 719 b 343 836 307 823 334 824 b 417 915 364 864 387 897 b 511 385 622 1016 536 478 b 416 148 491 304 465 217 b 131 77 357 58 223 2 b 63 362 53 147 53 265 z "},"P":{"ha":660,"x_min":0,"x_max":0,"o":"m 53 383 b 153 388 86 377 120 384 b 82 38 129 272 102 155 b 83 38 83 38 83 38 b 139 41 84 4 133 14 b 146 81 144 53 144 68 b 205 398 164 187 186 292 b 667 684 379 441 590 506 b 369 977 738 878 537 985 b 188 954 309 979 245 978 b 111 690 83 919 13 770 b 135 716 125 678 151 703 b 190 920 63 778 110 891 b 513 916 291 958 411 948 b 628 697 601 885 664 789 b 214 445 562 539 366 485 b 280 806 237 565 261 685 b 292 901 285 837 291 869 b 254 899 293 925 259 916 b 163 436 223 745 198 589 b 59 421 129 429 93 430 b 53 383 40 416 27 387 z "},"Q":{"ha":671,"x_min":0,"x_max":0,"o":"m 15 216 b 353 26 25 29 188 -64 b 356 -53 354 0 355 -27 b 399 -45 357 -80 400 -69 b 395 51 398 -13 397 19 b 509 911 662 234 724 667 b 370 964 472 948 424 973 b 271 839 308 955 270 900 b 244 837 264 845 253 846 b 15 216 90 673 -3 442 z m 318 886 b 393 93 490 1106 801 408 b 314 811 379 333 352 573 b 318 886 311 836 309 863 z m 219 758 b 271 820 235 780 253 800 b 351 66 308 570 339 319 b 66 173 235 -3 95 33 b 219 758 25 377 98 594 z "},"R":{"ha":635,"x_min":0,"x_max":0,"o":"m 91 841 b 578 866 163 992 469 962 b 210 515 734 687 342 543 b 263 806 229 612 247 708 b 275 901 268 837 274 869 b 237 899 276 925 242 916 b 160 505 209 769 190 635 b 109 497 143 502 126 499 b 109 451 80 493 75 448 b 150 457 122 453 136 455 b 65 38 121 318 89 178 b 66 38 65 38 66 38 b 122 41 67 4 116 14 b 137 126 130 69 131 98 b 196 439 156 231 176 335 b 479 6 281 289 381 148 b 517 33 493 -15 531 12 b 227 473 414 175 312 319 b 627 878 389 514 761 659 b 171 954 517 993 315 998 b 60 851 124 934 81 899 b 91 841 50 829 82 821 z "},"S":{"ha":622,"x_min":0,"x_max":0,"o":"m 51 503 b 445 426 123 413 386 503 b 15 127 295 341 115 274 b 96 0 -26 62 22 -6 b 324 102 179 3 261 52 b 500 410 417 177 505 284 b 611 486 525 428 617 453 b 493 450 597 520 519 456 b 124 522 449 543 213 489 b 531 935 -39 579 446 965 b 543 931 535 934 539 933 b 546 930 541 932 550 925 b 552 921 548 927 550 924 b 438 712 556 852 484 770 b 388 625 427 687 365 652 b 420 631 398 618 412 623 b 595 956 479 705 634 856 b 184 776 485 1060 268 851 b 51 503 123 707 -16 604 z m 446 343 b 191 70 413 218 302 123 b 51 73 149 54 81 26 b 53 108 48 85 49 97 b 450 384 136 237 319 310 b 446 343 450 370 449 356 z "},"T":{"ha":564,"x_min":0,"x_max":0,"o":"m 63 897 b 316 918 147 905 231 912 b 147 38 266 623 199 331 b 203 41 148 5 197 14 b 233 213 215 97 221 156 b 357 920 275 448 324 683 b 608 933 441 926 524 930 b 620 972 631 930 648 969 b 63 897 588 965 -79 959 z "},"U":{"ha":633,"x_min":0,"x_max":0,"o":"m 20 164 b 356 109 48 -34 256 -40 b 532 547 443 241 483 398 b 466 203 510 432 486 318 b 441 30 456 145 447 88 b 463 13 439 18 453 12 b 485 38 475 15 484 25 b 539 362 497 147 518 255 b 624 839 569 521 602 679 b 603 940 623 868 662 967 b 580 879 587 928 585 898 b 546 751 569 836 558 793 b 225 51 487 577 403 111 b 73 137 159 27 91 72 b 248 895 12 398 154 657 b 215 901 256 915 222 918 b 20 164 117 668 -10 424 z m 634 920 b 634 920 635 925 636 924 z "},"Ù":{"ha":633,"x_min":0,"x_max":0,"o":"m 20 164 b 356 109 48 -34 256 -40 b 532 547 443 241 483 398 b 466 203 510 432 486 318 b 441 30 456 145 447 88 b 463 13 439 18 453 12 b 485 38 475 15 484 25 b 539 362 497 147 518 255 b 624 839 569 521 602 679 b 603 940 623 868 662 967 b 580 879 587 928 585 898 b 546 751 569 836 558 793 b 225 51 487 577 403 111 b 73 137 159 27 91 72 b 248 895 12 398 154 657 b 215 901 256 915 222 918 b 20 164 117 668 -10 424 z m 634 920 b 634 920 635 925 636 924 z "},"Ú":{"ha":633,"x_min":0,"x_max":0,"o":"m 20 164 b 356 109 48 -34 256 -40 b 532 547 443 241 483 398 b 466 203 510 432 486 318 b 441 30 456 145 447 88 b 463 13 439 18 453 12 b 485 38 475 15 484 25 b 539 362 497 147 518 255 b 624 839 569 521 602 679 b 603 940 623 868 662 967 b 580 879 587 928 585 898 b 546 751 569 836 558 793 b 225 51 487 577 403 111 b 73 137 159 27 91 72 b 248 895 12 398 154 657 b 215 901 256 915 222 918 b 20 164 117 668 -10 424 z m 634 920 b 634 920 635 925 636 924 z "},"Û":{"ha":633,"x_min":0,"x_max":0,"o":"m 20 164 b 356 109 48 -34 256 -40 b 532 547 443 241 483 398 b 466 203 510 432 486 318 b 441 30 456 145 447 88 b 463 13 439 18 453 12 b 485 38 475 15 484 25 b 539 362 497 147 518 255 b 624 839 569 521 602 679 b 603 940 623 868 662 967 b 580 879 587 928 585 898 b 546 751 569 836 558 793 b 225 51 487 577 403 111 b 73 137 159 27 91 72 b 248 895 12 398 154 657 b 215 901 256 915 222 918 b 20 164 117 668 -10 424 z m 634 920 b 634 920 635 925 636 924 z "},"Ü":{"ha":633,"x_min":0,"x_max":0,"o":"m 20 164 b 356 109 48 -34 256 -40 b 532 547 443 241 483 398 b 466 203 510 432 486 318 b 441 30 456 145 447 88 b 463 13 439 18 453 12 b 485 38 475 15 484 25 b 539 362 497 147 518 255 b 624 839 569 521 602 679 b 603 940 623 868 662 967 b 580 879 587 928 585 898 b 546 751 569 836 558 793 b 225 51 487 577 403 111 b 73 137 159 27 91 72 b 248 895 12 398 154 657 b 215 901 256 915 222 918 b 20 164 117 668 -10 424 z m 634 920 b 634 920 635 925 636 924 z "},"V":{"ha":538,"x_min":0,"x_max":0,"o":"m 56 222 b 207 29 63 132 73 -42 b 572 941 408 201 499 685 b 531 944 579 969 537 967 b 220 89 452 653 390 343 b 101 209 124 -16 106 135 b 143 887 78 436 114 662 b 107 885 146 908 110 902 b 56 222 70 667 40 444 z "},"W":{"ha":781,"x_min":0,"x_max":0,"o":"m 37 361 b 43 71 27 265 13 164 b 207 69 73 -18 169 -10 b 301 305 250 142 274 225 b 562 201 298 27 390 -78 b 812 935 696 425 773 678 b 771 938 817 963 775 961 b 401 79 737 705 605 206 b 395 79 402 80 394 80 b 343 418 335 103 342 355 b 349 461 344 436 344 446 b 309 464 354 488 314 486 b 140 47 257 326 236 163 b 139 47 139 47 134 46 b 202 923 -40 58 166 802 b 169 938 219 952 181 968 b 37 361 106 751 66 555 z m 141 47 b 141 47 142 48 142 48 z m 139 47 b 140 47 140 47 140 47 b 139 47 140 47 139 47 b 139 47 139 47 139 47 z m 139 46 b 139 46 138 46 138 46 z "},"X":{"ha":535,"x_min":0,"x_max":0,"o":"m 379 107 b 421 4 392 73 403 36 b 459 25 432 -15 464 7 b 306 465 407 171 350 316 b 569 944 398 622 486 782 b 537 955 581 967 548 974 b 291 515 454 809 376 660 b 177 961 246 662 208 811 b 140 946 172 983 136 966 b 260 464 173 784 213 623 b -58 21 166 308 69 152 b 275 414 -80 -144 264 383 b 379 107 307 310 341 208 z "},"Y":{"ha":464,"x_min":0,"x_max":0,"o":"m 510 944 b 475 946 516 969 482 964 b 403 754 450 883 429 818 b 271 470 364 658 320 563 b 100 942 212 626 166 788 b 63 926 91 963 56 946 b 234 401 125 753 192 580 b 61 113 180 303 122 207 b 23 -2 52 92 -49 -20 b 510 944 251 270 414 603 z "},"Ý":{"ha":464,"x_min":0,"x_max":0,"o":"m 510 944 b 475 946 516 969 482 964 b 403 754 450 883 429 818 b 271 470 364 658 320 563 b 100 942 212 626 166 788 b 63 926 91 963 56 946 b 234 401 125 753 192 580 b 61 113 180 303 122 207 b 23 -2 52 92 -49 -20 b 510 944 251 270 414 603 z "},"Ÿ":{"ha":464,"x_min":0,"x_max":0,"o":"m 510 944 b 475 946 516 969 482 964 b 403 754 450 883 429 818 b 271 470 364 658 320 563 b 100 942 212 626 166 788 b 63 926 91 963 56 946 b 234 401 125 753 192 580 b 61 113 180 303 122 207 b 23 -2 52 92 -49 -20 b 510 944 251 270 414 603 z "},"Z":{"ha":589,"x_min":0,"x_max":0,"o":"m 580 936 b 176 888 516 1009 259 917 b 185 856 154 879 161 847 b 318 521 765 1044 529 843 b 140 522 259 522 199 522 b 130 490 121 525 107 493 b 294 487 185 489 240 488 b -51 22 183 329 66 175 b -36 -9 -61 9 -57 -13 b 493 59 138 27 317 35 b 512 78 502 60 511 68 b 498 95 513 86 507 95 b 9 39 335 85 171 64 b 341 486 123 186 234 334 b 556 499 376 492 554 467 b 543 518 558 508 552 517 b 364 520 483 518 424 519 b 510 735 414 591 463 663 b 580 936 542 795 623 865 z "},"[":{"ha":197,"x_min":0,"x_max":0,"o":"m 273 1037 b 132 1007 237 1030 137 1055 b 20 -97 103 639 41 268 b 142 -102 43 -115 110 -98 b 153 -66 163 -105 179 -70 b 57 -69 121 -67 89 -68 b 182 1000 97 287 145 643 b 286 1021 210 1006 277 988 b 273 1037 287 1029 282 1037 z "},"\\":{"ha":501,"x_min":0,"x_max":0,"o":"m 430 18 b 310 369 391 135 351 252 b 120 925 246 554 182 740 b 70 905 111 955 62 932 b 329 177 153 661 244 420 b 392 2 350 119 371 60 b 430 18 399 -21 437 -3 z "},"]":{"ha":194,"x_min":0,"x_max":0,"o":"m 49 1035 b 25 1018 39 1035 28 1029 b 134 1002 17 982 111 1007 b 9 -67 95 646 46 290 b -95 -88 -19 -73 -85 -55 b 25 -102 -99 -120 2 -97 b 59 -74 42 -105 58 -91 b 171 1030 88 293 149 664 b 49 1035 149 1048 81 1031 z "},"^":{"ha":331,"x_min":0,"x_max":0,"o":"m 250 904 b 170 889 228 950 188 922 b 104 598 145 875 4 500 b 207 874 130 692 152 792 b 251 632 235 797 249 713 b 299 640 251 601 298 614 b 250 904 299 729 291 824 z "},"_":{"ha":535,"x_min":0,"x_max":0,"o":"m 432 41 b -11 27 285 37 137 34 b -16 -6 -28 26 -38 -6 b 422 4 130 -5 276 2 b 432 41 443 1 459 38 z "},"`":{"ha":225,"x_min":0,"x_max":0,"o":"m 172 889 b 116 921 173 928 143 968 b 123 869 109 904 119 886 b 159 738 136 826 146 782 b 196 749 166 719 198 731 b 172 889 188 796 179 842 z "},"a":{"ha":471,"x_min":0,"x_max":0,"o":"m 428 388 b 411 412 433 400 423 411 b 381 391 397 413 386 403 b 120 71 332 275 239 122 b 54 124 84 65 59 90 b 201 363 51 221 128 307 b 398 436 259 405 326 431 b 398 470 419 437 423 471 b 8 119 215 460 21 310 b 193 63 13 18 127 5 b 323 197 243 100 286 147 b 301 74 313 157 303 116 b 409 32 294 -7 357 -13 b 387 63 434 49 411 81 b 357 44 378 56 366 47 l 352 44 b 350 45 351 44 350 45 b 388 278 328 116 368 208 b 428 388 401 315 414 352 z "},"à":{"ha":471,"x_min":0,"x_max":0,"o":"m 428 388 b 411 412 433 400 423 411 b 381 391 397 413 386 403 b 120 71 332 275 239 122 b 54 124 84 65 59 90 b 201 363 51 221 128 307 b 398 436 259 405 326 431 b 398 470 419 437 423 471 b 8 119 215 460 21 310 b 193 63 13 18 127 5 b 323 197 243 100 286 147 b 301 74 313 157 303 116 b 409 32 294 -7 357 -13 b 387 63 434 49 411 81 b 357 44 378 56 366 47 l 352 44 b 350 45 351 44 350 45 b 388 278 328 116 368 208 b 428 388 401 315 414 352 z "},"á":{"ha":471,"x_min":0,"x_max":0,"o":"m 428 388 b 411 412 433 400 423 411 b 381 391 397 413 386 403 b 120 71 332 275 239 122 b 54 124 84 65 59 90 b 201 363 51 221 128 307 b 398 436 259 405 326 431 b 398 470 419 437 423 471 b 8 119 215 460 21 310 b 193 63 13 18 127 5 b 323 197 243 100 286 147 b 301 74 313 157 303 116 b 409 32 294 -7 357 -13 b 387 63 434 49 411 81 b 357 44 378 56 366 47 l 352 44 b 350 45 351 44 350 45 b 388 278 328 116 368 208 b 428 388 401 315 414 352 z "},"â":{"ha":471,"x_min":0,"x_max":0,"o":"m 428 388 b 411 412 433 400 423 411 b 381 391 397 413 386 403 b 120 71 332 275 239 122 b 54 124 84 65 59 90 b 201 363 51 221 128 307 b 398 436 259 405 326 431 b 398 470 419 437 423 471 b 8 119 215 460 21 310 b 193 63 13 18 127 5 b 323 197 243 100 286 147 b 301 74 313 157 303 116 b 409 32 294 -7 357 -13 b 387 63 434 49 411 81 b 357 44 378 56 366 47 l 352 44 b 350 45 351 44 350 45 b 388 278 328 116 368 208 b 428 388 401 315 414 352 z "},"ã":{"ha":471,"x_min":0,"x_max":0,"o":"m 428 388 b 411 412 433 400 423 411 b 381 391 397 413 386 403 b 120 71 332 275 239 122 b 54 124 84 65 59 90 b 201 363 51 221 128 307 b 398 436 259 405 326 431 b 398 470 419 437 423 471 b 8 119 215 460 21 310 b 193 63 13 18 127 5 b 323 197 243 100 286 147 b 301 74 313 157 303 116 b 409 32 294 -7 357 -13 b 387 63 434 49 411 81 b 357 44 378 56 366 47 l 352 44 b 350 45 351 44 350 45 b 388 278 328 116 368 208 b 428 388 401 315 414 352 z "},"ä":{"ha":471,"x_min":0,"x_max":0,"o":"m 428 388 b 411 412 433 400 423 411 b 381 391 397 413 386 403 b 120 71 332 275 239 122 b 54 124 84 65 59 90 b 201 363 51 221 128 307 b 398 436 259 405 326 431 b 398 470 419 437 423 471 b 8 119 215 460 21 310 b 193 63 13 18 127 5 b 323 197 243 100 286 147 b 301 74 313 157 303 116 b 409 32 294 -7 357 -13 b 387 63 434 49 411 81 b 357 44 378 56 366 47 l 352 44 b 350 45 351 44 350 45 b 388 278 328 116 368 208 b 428 388 401 315 414 352 z "},"å":{"ha":471,"x_min":0,"x_max":0,"o":"m 428 388 b 411 412 433 400 423 411 b 381 391 397 413 386 403 b 120 71 332 275 239 122 b 54 124 84 65 59 90 b 201 363 51 221 128 307 b 398 436 259 405 326 431 b 398 470 419 437 423 471 b 8 119 215 460 21 310 b 193 63 13 18 127 5 b 323 197 243 100 286 147 b 301 74 313 157 303 116 b 409 32 294 -7 357 -13 b 387 63 434 49 411 81 b 357 44 378 56 366 47 l 352 44 b 350 45 351 44 350 45 b 388 278 328 116 368 208 b 428 388 401 315 414 352 z "},"b":{"ha":465,"x_min":0,"x_max":0,"o":"m 433 359 b 139 369 421 530 201 485 b 255 954 183 563 221 758 b 217 957 259 980 221 978 b 3 20 150 643 95 327 b 19 -3 0 9 7 -2 b 48 17 32 -4 44 5 b 107 194 67 76 86 135 b 222 7 128 127 132 12 b 414 207 322 16 388 118 b 433 359 428 255 435 309 z m 373 261 b 211 68 363 195 297 36 b 140 283 166 129 164 213 b 298 432 166 350 216 431 b 373 261 401 435 388 333 z "},"c":{"ha":417,"x_min":0,"x_max":0,"o":"m 359 197 b 70 170 297 104 51 -48 b 297 455 78 274 182 454 b 253 293 327 433 273 319 b 277 275 239 274 263 259 b 274 493 318 327 407 513 b 25 198 145 456 56 323 b 124 9 2 121 24 3 b 270 69 177 12 228 40 b 385 178 314 98 353 136 b 359 197 401 198 373 216 z "},"ç":{"ha":417,"x_min":0,"x_max":0,"o":"m 359 197 b 70 170 297 104 51 -48 b 297 455 78 274 182 454 b 253 293 327 433 273 319 b 277 275 239 274 263 259 b 274 493 318 327 407 513 b 25 198 145 456 56 323 b 124 9 2 121 24 3 b 270 69 177 12 228 40 b 385 178 314 98 353 136 b 359 197 401 198 373 216 z "},"d":{"ha":461,"x_min":0,"x_max":0,"o":"m 478 937 b 354 330 435 735 407 530 b 16 126 285 718 16 317 b 310 169 13 -120 237 73 b 268 40 297 126 280 84 b 315 31 260 10 304 8 b 361 150 334 68 349 109 b 395 168 371 135 399 150 b 383 223 392 186 387 205 b 483 735 431 390 456 563 b 515 939 494 803 507 870 b 478 937 517 960 483 953 z m 196 112 b 276 433 -95 -168 137 583 b 328 266 305 382 311 322 b 196 112 290 210 245 158 z "},"e":{"ha":408,"x_min":0,"x_max":0,"o":"m 336 138 b 74 201 252 27 57 28 b 351 434 188 220 374 293 b 222 457 329 486 263 475 b 93 31 69 401 -71 146 b 365 116 189 -18 308 31 b 336 138 381 139 353 158 z m 195 393 b 85 253 394 512 311 272 b 195 393 104 310 145 360 z "},"è":{"ha":408,"x_min":0,"x_max":0,"o":"m 336 138 b 74 201 252 27 57 28 b 351 434 188 220 374 293 b 222 457 329 486 263 475 b 93 31 69 401 -71 146 b 365 116 189 -18 308 31 b 336 138 381 139 353 158 z m 195 393 b 85 253 394 512 311 272 b 195 393 104 310 145 360 z "},"é":{"ha":408,"x_min":0,"x_max":0,"o":"m 336 138 b 74 201 252 27 57 28 b 351 434 188 220 374 293 b 222 457 329 486 263 475 b 93 31 69 401 -71 146 b 365 116 189 -18 308 31 b 336 138 381 139 353 158 z m 195 393 b 85 253 394 512 311 272 b 195 393 104 310 145 360 z "},"ê":{"ha":408,"x_min":0,"x_max":0,"o":"m 336 138 b 74 201 252 27 57 28 b 351 434 188 220 374 293 b 222 457 329 486 263 475 b 93 31 69 401 -71 146 b 365 116 189 -18 308 31 b 336 138 381 139 353 158 z m 195 393 b 85 253 394 512 311 272 b 195 393 104 310 145 360 z "},"ë":{"ha":408,"x_min":0,"x_max":0,"o":"m 336 138 b 74 201 252 27 57 28 b 351 434 188 220 374 293 b 222 457 329 486 263 475 b 93 31 69 401 -71 146 b 365 116 189 -18 308 31 b 336 138 381 139 353 158 z m 195 393 b 85 253 394 512 311 272 b 195 393 104 310 145 360 z "},"f":{"ha":389,"x_min":0,"x_max":0,"o":"m 355 935 b 187 529 239 837 218 669 b 53 513 142 527 97 522 b 52 480 32 509 27 477 b 180 492 95 485 137 490 b 118 -1 152 329 138 164 b 165 7 120 -31 165 -18 b 222 494 184 169 196 333 b 387 487 277 496 332 489 b 229 530 486 535 252 532 b 387 915 258 661 273 829 b 441 855 422 941 442 880 b 477 861 440 831 476 842 b 355 935 483 936 420 988 z "},"g":{"ha":513,"x_min":0,"x_max":0,"o":"m 480 177 b 344 70 456 195 369 87 b 390 221 361 120 377 170 b 361 236 395 238 374 246 b 177 101 300 190 238 147 b 94 47 149 84 125 58 b 92 208 9 50 61 168 b 229 351 128 263 177 310 b 423 455 288 396 352 431 b 418 488 441 461 441 495 b 57 227 274 447 142 351 b 53 7 13 168 -37 49 b 338 176 133 -19 266 133 b 281 7 322 119 302 63 b -56 -510 237 -43 -213 -491 b 317 -7 131 -499 254 -159 b 480 153 370 47 424 101 b 480 177 486 159 487 171 z m -50 -472 l -52 -473 b 38 -323 -40 -416 5 -369 b 247 -80 103 -238 174 -158 b -50 -472 193 -200 97 -457 z "},"h":{"ha":489,"x_min":0,"x_max":0,"o":"m 446 168 b 420 157 436 172 425 165 b 338 64 398 129 366 91 b 404 470 368 181 442 354 b 86 189 299 576 125 268 b 250 951 146 442 199 696 b 56 230 206 1099 83 275 b 6 28 40 162 24 95 b 44 20 0 3 35 2 b 234 361 102 136 155 257 b 288 44 494 664 325 157 b 289 1 284 31 275 12 b 375 48 317 -21 360 31 b 446 168 388 69 481 152 z m 362 455 b 362 455 362 455 362 455 b 362 455 364 454 363 455 z "},"i":{"ha":165,"x_min":0,"x_max":0,"o":"m 110 535 b 15 20 76 364 46 191 b 65 16 9 -14 60 -12 b 146 537 92 190 121 363 b 110 535 149 558 113 552 z m 116 668 b 170 664 107 630 164 634 b 116 668 178 702 122 699 z "},"ì":{"ha":165,"x_min":0,"x_max":0,"o":"m 110 535 b 15 20 76 364 46 191 b 65 16 9 -14 60 -12 b 146 537 92 190 121 363 b 110 535 149 558 113 552 z m 116 668 b 170 664 107 630 164 634 b 116 668 178 702 122 699 z "},"í":{"ha":165,"x_min":0,"x_max":0,"o":"m 110 535 b 15 20 76 364 46 191 b 65 16 9 -14 60 -12 b 146 537 92 190 121 363 b 110 535 149 558 113 552 z m 116 668 b 170 664 107 630 164 634 b 116 668 178 702 122 699 z "},"î":{"ha":165,"x_min":0,"x_max":0,"o":"m 110 535 b 15 20 76 364 46 191 b 65 16 9 -14 60 -12 b 146 537 92 190 121 363 b 110 535 149 558 113 552 z m 116 668 b 170 664 107 630 164 634 b 116 668 178 702 122 699 z "},"ï":{"ha":165,"x_min":0,"x_max":0,"o":"m 110 535 b 15 20 76 364 46 191 b 65 16 9 -14 60 -12 b 146 537 92 190 121 363 b 110 535 149 558 113 552 z m 116 668 b 170 664 107 630 164 634 b 116 668 178 702 122 699 z "},"j":{"ha":231,"x_min":0,"x_max":0,"o":"m 192 121 b 49 -1 168 141 75 19 b 114 550 52 31 215 689 b 27 76 87 392 62 233 b -6 -62 17 30 6 -16 b -145 -230 -55 -116 -101 -172 b -285 -475 -198 -306 -267 -382 b -226 -517 -288 -511 -257 -523 b 31 -73 -84 -477 -11 -202 b 192 97 83 -15 137 42 b 192 121 199 104 200 115 z m -192 -463 b -242 -480 -208 -476 -222 -481 b -244 -479 -242 -480 -243 -480 b -245 -467 -245 -476 -245 -470 b -31 -144 -203 -345 -110 -245 b -192 -463 -71 -254 -106 -379 z m 140 649 b 155 702 170 645 193 697 b 140 649 124 706 101 654 z "},"k":{"ha":450,"x_min":0,"x_max":0,"o":"m 492 588 b 347 502 459 613 377 522 b 114 227 256 423 177 330 b 254 939 174 461 217 700 b 217 937 256 960 221 953 b 143 581 190 819 170 699 b 33 138 110 432 72 285 b 35 15 31 107 -26 10 b 112 147 73 30 88 113 b 190 272 136 190 161 232 b 367 -9 204 216 298 -39 b 377 24 376 -3 386 14 b 225 318 300 106 254 211 b 361 459 266 369 312 416 b 484 552 400 493 442 522 b 484 552 484 552 484 552 b 492 588 496 559 502 577 z "},"l":{"ha":179,"x_min":0,"x_max":0,"o":"m 193 937 b 39 154 140 677 57 420 b 62 17 38 109 37 56 b 109 43 76 -6 117 20 b 114 316 84 132 103 226 b 188 718 133 451 162 584 b 229 939 203 791 220 865 b 193 937 231 960 197 953 z "},"m":{"ha":628,"x_min":0,"x_max":0,"o":"m 605 454 b 432 379 556 526 465 421 b 295 179 381 316 337 248 b 242 439 313 250 410 540 b 73 167 158 371 122 260 b 138 402 94 245 114 324 b 103 404 145 425 110 423 b 50 227 83 346 66 287 b 4 32 32 163 15 98 b 40 24 0 8 30 7 b 292 422 106 119 185 395 b 293 422 292 422 292 422 b 292 422 292 422 292 422 b 292 422 292 422 292 422 b 293 422 293 422 293 422 b 293 422 293 422 293 422 b 293 422 293 422 293 422 b 293 422 293 422 293 422 b 295 419 294 421 294 420 b 272 251 306 369 283 304 b 212 39 253 180 233 110 b 249 32 205 15 239 16 b 431 321 307 130 363 230 b 555 373 460 368 608 532 b 468 42 524 263 490 154 b 514 39 462 10 506 14 b 596 353 547 142 570 248 b 605 454 603 384 617 423 z m 293 422 b 293 422 293 422 293 422 b 293 422 294 423 294 422 z m 293 422 b 293 422 293 422 293 422 b 293 422 294 421 294 421 z "},"n":{"ha":443,"x_min":0,"x_max":0,"o":"m 395 450 b 265 460 376 511 302 489 b 74 172 173 386 123 276 b 136 402 95 249 114 326 b 101 404 143 426 108 423 b 4 32 61 283 27 158 b 345 451 35 -104 204 488 b 349 448 344 451 348 448 b 325 146 391 358 342 239 b 300 40 316 111 306 76 b 317 16 298 28 303 17 b 374 136 363 21 361 101 b 395 450 391 238 418 348 z "},"ñ":{"ha":443,"x_min":0,"x_max":0,"o":"m 395 450 b 265 460 376 511 302 489 b 74 172 173 386 123 276 b 136 402 95 249 114 326 b 101 404 143 426 108 423 b 4 32 61 283 27 158 b 345 451 35 -104 204 488 b 349 448 344 451 348 448 b 325 146 391 358 342 239 b 300 40 316 111 306 76 b 317 16 298 28 303 17 b 374 136 363 21 361 101 b 395 450 391 238 418 348 z "},"o":{"ha":417,"x_min":0,"x_max":0,"o":"m 318 510 b 277 488 305 530 272 508 b 316 354 290 443 307 400 b 320 228 324 313 328 269 b 73 131 311 98 141 -41 b 255 432 51 247 129 414 b 261 470 275 434 286 470 b 170 5 50 472 -108 18 b 318 510 396 40 427 348 z "},"ò":{"ha":417,"x_min":0,"x_max":0,"o":"m 318 510 b 277 488 305 530 272 508 b 316 354 290 443 307 400 b 320 228 324 313 328 269 b 73 131 311 98 141 -41 b 255 432 51 247 129 414 b 261 470 275 434 286 470 b 170 5 50 472 -108 18 b 318 510 396 40 427 348 z "},"ó":{"ha":417,"x_min":0,"x_max":0,"o":"m 318 510 b 277 488 305 530 272 508 b 316 354 290 443 307 400 b 320 228 324 313 328 269 b 73 131 311 98 141 -41 b 255 432 51 247 129 414 b 261 470 275 434 286 470 b 170 5 50 472 -108 18 b 318 510 396 40 427 348 z "},"ô":{"ha":417,"x_min":0,"x_max":0,"o":"m 318 510 b 277 488 305 530 272 508 b 316 354 290 443 307 400 b 320 228 324 313 328 269 b 73 131 311 98 141 -41 b 255 432 51 247 129 414 b 261 470 275 434 286 470 b 170 5 50 472 -108 18 b 318 510 396 40 427 348 z "},"õ":{"ha":417,"x_min":0,"x_max":0,"o":"m 318 510 b 277 488 305 530 272 508 b 316 354 290 443 307 400 b 320 228 324 313 328 269 b 73 131 311 98 141 -41 b 255 432 51 247 129 414 b 261 470 275 434 286 470 b 170 5 50 472 -108 18 b 318 510 396 40 427 348 z "},"ö":{"ha":417,"x_min":0,"x_max":0,"o":"m 318 510 b 277 488 305 530 272 508 b 316 354 290 443 307 400 b 320 228 324 313 328 269 b 73 131 311 98 141 -41 b 255 432 51 247 129 414 b 261 470 275 434 286 470 b 170 5 50 472 -108 18 b 318 510 396 40 427 348 z "},"ø":{"ha":417,"x_min":0,"x_max":0,"o":"m 318 510 b 277 488 305 530 272 508 b 316 354 290 443 307 400 b 320 228 324 313 328 269 b 73 131 311 98 141 -41 b 255 432 51 247 129 414 b 261 470 275 434 286 470 b 170 5 50 472 -108 18 b 318 510 396 40 427 348 z "},"p":{"ha":457,"x_min":0,"x_max":0,"o":"m 389 474 b 240 467 346 510 282 496 b 110 275 176 420 141 345 b 146 469 122 340 135 404 b 111 472 149 493 117 491 b -57 -280 44 224 1 -30 b -104 -489 -72 -349 -89 -419 b -57 -492 -111 -521 -65 -518 b 116 196 11 -265 32 -26 b 389 474 144 -286 561 290 z m 226 53 b 220 51 225 53 221 52 b 213 54 221 52 214 53 b 152 236 171 89 161 177 b 138 250 151 246 145 250 b 146 268 141 256 144 262 b 319 456 184 341 224 451 b 382 364 369 453 382 405 b 226 53 379 247 332 113 z "},"q":{"ha":469,"x_min":0,"x_max":0,"o":"m 445 485 b 379 421 408 514 394 444 b 50 279 259 533 96 402 b 71 22 20 202 -14 75 b 380 331 195 -26 326 243 b 328 88 364 250 345 169 b 202 -489 289 -105 245 -297 b 249 -492 195 -521 241 -518 b 335 -123 284 -371 309 -246 b 452 469 377 74 418 271 b 445 485 453 477 450 482 z m 291 261 b 95 63 255 212 165 38 b 76 220 51 100 65 171 b 357 379 99 337 245 500 b 291 261 336 339 314 300 z "},"r":{"ha":428,"x_min":0,"x_max":0,"o":"m 425 385 b 244 445 402 466 309 510 b 95 205 181 375 143 285 b 155 467 116 292 134 380 b 3 21 117 594 21 50 b 47 12 -4 -7 37 -9 b 316 434 79 75 249 461 b 371 363 348 427 363 392 b 425 385 380 331 436 357 z "},"s":{"ha":454,"x_min":0,"x_max":0,"o":"m 374 356 b 397 333 358 340 380 320 b 330 491 478 393 427 502 b 86 230 249 491 0 319 b 337 195 158 180 261 232 b 175 64 410 121 225 74 b 21 62 124 55 72 54 b 7 11 -9 66 -29 16 b 376 111 134 -4 280 22 b 386 217 401 140 413 184 b 196 253 338 269 259 247 b 139 328 135 248 78 267 b 357 446 194 384 271 464 b 374 356 400 434 408 383 z "},"t":{"ha":500,"x_min":0,"x_max":0,"o":"m 496 524 b 251 520 415 527 333 521 b 400 976 296 674 355 823 b 200 519 378 1100 215 548 b 53 513 151 517 102 516 b 48 479 36 512 26 480 b 189 481 95 479 142 480 b 299 26 149 357 29 -90 b 446 186 362 62 414 121 b 404 200 461 216 418 225 b 242 53 367 139 314 71 b 240 483 113 72 218 398 b 491 490 324 486 408 485 b 496 524 509 492 518 522 z "},"u":{"ha":543,"x_min":0,"x_max":0,"o":"m 498 174 b 436 130 467 184 453 148 b 380 75 419 111 401 91 b 440 350 394 168 417 259 b 475 457 447 388 462 421 b 431 466 484 485 442 486 b 121 34 372 356 252 44 b 173 457 -27 55 145 376 b 138 464 182 479 146 481 b 64 1 91 356 -57 90 b 347 186 188 -48 288 95 b 357 12 343 142 287 22 b 498 174 390 0 559 156 z m 382 85 b 382 85 382 86 382 86 z m 376 78 b 377 76 377 77 377 76 b 376 78 377 76 377 77 z "},"ù":{"ha":543,"x_min":0,"x_max":0,"o":"m 498 174 b 436 130 467 184 453 148 b 380 75 419 111 401 91 b 440 350 394 168 417 259 b 475 457 447 388 462 421 b 431 466 484 485 442 486 b 121 34 372 356 252 44 b 173 457 -27 55 145 376 b 138 464 182 479 146 481 b 64 1 91 356 -57 90 b 347 186 188 -48 288 95 b 357 12 343 142 287 22 b 498 174 390 0 559 156 z m 382 85 b 382 85 382 86 382 86 z m 376 78 b 377 76 377 77 377 76 b 376 78 377 76 377 77 z "},"ú":{"ha":543,"x_min":0,"x_max":0,"o":"m 498 174 b 436 130 467 184 453 148 b 380 75 419 111 401 91 b 440 350 394 168 417 259 b 475 457 447 388 462 421 b 431 466 484 485 442 486 b 121 34 372 356 252 44 b 173 457 -27 55 145 376 b 138 464 182 479 146 481 b 64 1 91 356 -57 90 b 347 186 188 -48 288 95 b 357 12 343 142 287 22 b 498 174 390 0 559 156 z m 382 85 b 382 85 382 86 382 86 z m 376 78 b 377 76 377 77 377 76 b 376 78 377 76 377 77 z "},"û":{"ha":543,"x_min":0,"x_max":0,"o":"m 498 174 b 436 130 467 184 453 148 b 380 75 419 111 401 91 b 440 350 394 168 417 259 b 475 457 447 388 462 421 b 431 466 484 485 442 486 b 121 34 372 356 252 44 b 173 457 -27 55 145 376 b 138 464 182 479 146 481 b 64 1 91 356 -57 90 b 347 186 188 -48 288 95 b 357 12 343 142 287 22 b 498 174 390 0 559 156 z m 382 85 b 382 85 382 86 382 86 z m 376 78 b 377 76 377 77 377 76 b 376 78 377 76 377 77 z "},"ü":{"ha":543,"x_min":0,"x_max":0,"o":"m 498 174 b 436 130 467 184 453 148 b 380 75 419 111 401 91 b 440 350 394 168 417 259 b 475 457 447 388 462 421 b 431 466 484 485 442 486 b 121 34 372 356 252 44 b 173 457 -27 55 145 376 b 138 464 182 479 146 481 b 64 1 91 356 -57 90 b 347 186 188 -48 288 95 b 357 12 343 142 287 22 b 498 174 390 0 559 156 z m 382 85 b 382 85 382 86 382 86 z m 376 78 b 377 76 377 77 377 76 b 376 78 377 76 377 77 z "},"v":{"ha":422,"x_min":0,"x_max":0,"o":"m 413 497 b 385 477 400 498 389 489 b 122 65 358 420 203 -36 b 98 495 77 201 97 353 b 63 135 31 583 58 164 b 154 11 63 80 85 -1 b 279 145 219 25 248 94 b 429 474 338 250 386 362 b 413 497 433 485 424 496 z "},"w":{"ha":554,"x_min":0,"x_max":0,"o":"m 499 468 b 341 41 483 399 407 48 b 283 156 298 55 296 119 b 272 337 269 216 265 277 b 229 335 271 362 234 355 b 176 211 214 293 196 251 b 84 295 82 -9 67 174 b 125 438 91 344 106 392 b 91 445 134 459 99 461 b 105 66 50 371 -25 78 b 227 225 176 79 195 171 b 305 4 238 151 239 51 b 431 84 363 -23 414 34 b 547 465 481 207 520 335 b 499 468 554 497 505 495 z "},"x":{"ha":436,"x_min":0,"x_max":0,"o":"m 424 542 b 213 314 347 474 282 391 b 100 485 179 373 142 431 b 68 463 88 502 57 481 b 181 275 107 401 146 339 b -7 28 115 196 51 114 b 25 17 -19 5 15 -2 b 199 242 80 94 138 169 b 258 122 220 202 239 162 b 315 3 276 83 291 40 b 351 23 327 -15 355 6 b 232 281 328 115 276 198 b 451 522 301 365 381 440 b 424 542 462 542 440 550 z "},"y":{"ha":544,"x_min":0,"x_max":0,"o":"m 510 144 b 368 53 485 174 394 71 b 477 457 404 188 443 322 b 431 466 482 483 442 487 b 120 34 372 356 252 44 b 173 457 -27 55 144 376 b 137 464 182 479 146 481 b 63 1 90 356 -58 90 b 379 243 210 -52 317 136 b 310 -2 356 162 333 80 b 14 -338 204 -106 98 -214 b 155 -445 -126 -515 15 -573 b 349 -16 271 -331 307 -167 b 479 98 391 24 434 62 b 510 144 491 110 522 122 z m 176 -358 b 6 -468 140 -412 76 -483 b 288 -76 6 -468 -70 -444 b 176 -358 261 -174 234 -273 z "},"ý":{"ha":544,"x_min":0,"x_max":0,"o":"m 510 144 b 368 53 485 174 394 71 b 477 457 404 188 443 322 b 431 466 482 483 442 487 b 120 34 372 356 252 44 b 173 457 -27 55 144 376 b 137 464 182 479 146 481 b 63 1 90 356 -58 90 b 379 243 210 -52 317 136 b 310 -2 356 162 333 80 b 14 -338 204 -106 98 -214 b 155 -445 -126 -515 15 -573 b 349 -16 271 -331 307 -167 b 479 98 391 24 434 62 b 510 144 491 110 522 122 z m 176 -358 b 6 -468 140 -412 76 -483 b 288 -76 6 -468 -70 -444 b 176 -358 261 -174 234 -273 z "},"ÿ":{"ha":544,"x_min":0,"x_max":0,"o":"m 510 144 b 368 53 485 174 394 71 b 477 457 404 188 443 322 b 431 466 482 483 442 487 b 120 34 372 356 252 44 b 173 457 -27 55 144 376 b 137 464 182 479 146 481 b 63 1 90 356 -58 90 b 379 243 210 -52 317 136 b 310 -2 356 162 333 80 b 14 -338 204 -106 98 -214 b 155 -445 -126 -515 15 -573 b 349 -16 271 -331 307 -167 b 479 98 391 24 434 62 b 510 144 491 110 522 122 z m 176 -358 b 6 -468 140 -412 76 -483 b 288 -76 6 -468 -70 -444 b 176 -358 261 -174 234 -273 z "},"z":{"ha":458,"x_min":0,"x_max":0,"o":"m 427 297 b 352 298 402 300 377 298 b 88 484 514 513 236 525 b 88 448 65 482 60 444 b 356 421 163 461 304 490 b 305 297 371 376 325 334 b 108 276 269 290 113 308 b 121 256 105 267 111 256 b 277 260 173 258 225 259 b 1 51 204 169 108 96 b 6 13 -19 43 -22 8 b 331 13 113 33 223 28 b 111 65 447 70 138 69 b 326 260 194 115 268 181 b 422 264 358 260 390 260 b 427 297 440 266 449 294 z "},"{":{"ha":546,"x_min":0,"x_max":0,"o":"m 473 1041 b 445 1042 466 1050 454 1047 b 135 655 298 960 191 812 b 102 539 121 618 112 577 b 52 456 81 519 40 494 b 86 362 64 423 94 401 b 170 -15 88 232 114 102 b 245 -88 187 -42 203 -107 b 261 -56 255 -83 267 -69 b 158 193 217 23 176 104 b 138 402 141 262 138 332 b 102 480 137 432 107 454 b 102 481 102 480 102 480 b 172 614 156 515 156 558 b 465 1014 221 775 318 928 b 473 1041 474 1019 478 1032 z "},"|":{"ha":196,"x_min":0,"x_max":0,"o":"m 156 1034 b 135 1012 144 1033 136 1023 b 25 87 100 704 61 396 b 7 -83 19 30 12 -26 b 59 -74 9 -116 60 -102 b 175 1019 93 291 139 655 b 156 1034 176 1030 165 1036 z "},"}":{"ha":354,"x_min":0,"x_max":0,"o":"m 273 537 b 261 576 259 546 260 557 b 248 725 261 626 256 676 b 100 1030 241 776 169 1064 b 84 998 90 1024 78 1010 b 209 606 155 879 204 746 b 251 480 210 544 201 525 b 179 334 198 418 197 417 b 73 106 155 253 119 176 b -114 -73 24 34 -40 -28 b -122 -100 -123 -79 -128 -91 b -94 -102 -115 -110 -103 -107 b 242 387 82 0 200 191 b 273 537 254 445 352 469 z m 251 481 b 251 481 251 481 251 481 b 251 481 251 481 253 486 z "},"~":{"ha":490,"x_min":0,"x_max":0,"o":"m 456 629 b 263 514 387 627 379 343 b 102 641 225 574 198 706 b 45 473 56 601 40 533 b 80 479 47 452 80 460 b 131 616 81 526 88 589 b 249 448 184 640 201 483 b 425 512 318 374 405 426 b 456 629 429 539 492 615 z "}," ":{"ha":368,"x_min":0,"x_max":0,"o":""},"­":{"ha":0,"x_min":0,"x_max":0,"o":""},"‘":{"ha":190,"x_min":0,"x_max":0,"o":"m 153 876 b 150 876 152 876 151 876 b 166 906 153 887 159 898 b 142 924 181 924 156 939 b 115 831 123 900 96 861 b 153 876 145 797 207 864 z "},"’":{"ha":189,"x_min":0,"x_max":0,"o":"m 148 933 b 137 879 116 932 95 881 b 121 828 137 861 106 843 b 148 933 161 812 211 940 z "},"‚":{"ha":128,"x_min":0,"x_max":0,"o":"m 6 40 b -5 -14 -26 39 -47 -12 b -21 -66 -5 -32 -36 -50 b 6 40 19 -81 69 46 z "},"“":{"ha":256,"x_min":0,"x_max":0,"o":"m 227 876 b 224 876 226 876 225 876 b 239 906 226 887 232 898 b 216 924 254 924 229 939 b 188 831 196 900 169 861 b 227 876 218 797 280 864 z m 145 876 b 142 876 144 876 143 876 b 157 906 145 887 150 898 b 134 924 173 924 148 939 b 107 831 115 900 87 861 b 145 876 136 797 198 864 z "},"”":{"ha":254,"x_min":0,"x_max":0,"o":"m 106 907 b 129 879 102 893 113 877 b 113 828 129 861 97 843 b 168 889 144 817 160 866 b 106 907 186 936 121 949 z m 221 933 b 210 879 189 932 169 881 b 195 828 210 861 179 844 b 221 933 234 812 285 940 z "},"„":{"ha":210,"x_min":0,"x_max":0,"o":"m 6 40 b -5 -14 -26 39 -47 -12 b -21 -66 -5 -32 -36 -49 b 6 40 19 -81 69 46 z m 87 40 b 76 -14 55 39 35 -12 b 61 -66 76 -32 45 -50 b 87 40 101 -81 151 46 z "}}}
